<svg xmlns="http://www.w3.org/2000/svg" x="0" y="0" viewBox="0 0 98.7 92.4" style="fill: #fff">
  <path d="M29.6 80.1a9 9 0 013.9 3.6 7.2 7.2 0 019 .1l12-8.8c-2-2.5-3.2-5.4-3.4-8.6h-.3L35.2 79.5c-1.5 1.1-3 1-3.9 0-1-1-1.2-2.3-.2-3.6.7-1 12.8-11.5 12.8-11.5a16 16 0 01-3.3-2.5l-.4-.4S28 73.2 26.9 74c-1.2.9-2.7.7-3.7-.3s-1.3-2.3-.1-3.7L37 56.4l-.1-.3c-1.9.2-3.9.2-5.8-.2L20.2 67c-1.3 1.3-2.7.8-3.5 0s-1.3-1.9-.4-3.3c1-1.3 9.1-9.9 9.1-9.9-1.2-.7-2.4-1.5-3.5-2.5 0 0-5 6.3-7.5 8.6-1.3 1.3-2 1-2.7.8-.5-.2-1.2-.9-1.5-1.4s-.5-1.7.5-2.8c2.6-2.9 7.8-9.3 7.8-9.3A18 18 0 0116 36l-1-.7-13.2 18a6.5 6.5 0 00.6 8l19.2 19.2a9.4 9.4 0 018-.4zM87 41.9l11-.4-.5-2.8-10.1 2.7-.4.5zM83 38.9l4.3-3.5.6 1.2-4.7 2.4-.2-.1zM84.6 45.6l5.1.3-.2 1.2-4.7-1.2-.2-.3zM24.4 83.2l-2 2.4-.5-.6 2.3-1.8h.2zM26.6 85.7l-.9 6.7L24 92l2.3-6.1.3-.2zM29.5 85l2.3 3.6-1 .4-1.4-3.8.1-.2zM36.4 14l-.8-12.4 3.1.3-1.9 11.7-.4.4zM49.7 18.6l7.7-3.1-1.1-1.8-6.5 4.5-.1.4zM46 12.5l7.7-11L50.4 0l-4.6 11.7.2.8z"/>
  <path d="M76.6 57.2a14 14 0 003.9-8 3.6 3.6 0 01-5.4-3.1c0-1.2.6-2.2 1.4-2.8-1.2-.8-2-2.2-2-3.8 0-1.9 1.2-3.6 2.9-4.3a23.8 23.8 0 00-4.2-5.4l-.5-.5a14.9 14.9 0 01-16.4 7.3c-3.9-.9-7-3.3-9-6.4-3.4 2.8-8.1 4-12.7 2.9a14.9 14.9 0 01-11-17.8l.6-2c-2.9-.2-5.8.9-8 3.1a10.3 10.3 0 003 16.8l1.9.9-.4 2c-.9 4.4.5 8.8 3.6 12 3.4 3.4 8.3 4.7 12.9 3.4l2.8-.8.5 2.9a10.4 10.4 0 0011.9 8.5l3.5-.6-.4 3.5c-.4 3.2.7 6.3 2.9 8.6 4 4 10.6 4.1 14.7 0 3.3-3.2 4-8.2 1.8-12.2l-1-1.9 1.7-1.4 1-.9z"/>
</svg>
